<?xml version="1.0" encoding="utf-8"?>
<!-- Generator: Adobe Illustrator 16.0.4, SVG Export Plug-In . SVG Version: 6.00 Build 0)  -->
<!DOCTYPE svg PUBLIC "-//W3C//DTD SVG 1.1//EN" "http://www.w3.org/Graphics/SVG/1.1/DTD/svg11.dtd">
<svg version="1.1" id="Layer_1" xmlns="http://www.w3.org/2000/svg" xmlns:xlink="http://www.w3.org/1999/xlink" x="0px" y="0px"
	 width="50px" height="50px" viewBox="0 0 50 50" enable-background="new 0 0 50 50" xml:space="preserve">
<path d="M22.128,19.146c0.257-0.306,0.557-0.44,0.898-0.403c0.185,0.022,0.371,0.09,0.556,0.211l0.468-0.599
	c-0.395-0.289-0.806-0.404-1.229-0.348c-0.424,0.061-0.828,0.305-1.217,0.729l-0.447-0.35l-0.254,0.325l0.455,0.354
	c-0.354,0.461-0.492,0.928-0.412,1.397c0.078,0.472,0.291,0.843,0.639,1.112c0.385,0.303,0.78,0.424,1.184,0.357
	c0.402-0.065,0.846-0.309,1.324-0.729l1.86,1.456c-0.332,0.358-0.684,0.512-1.051,0.452c-0.207-0.034-0.474-0.162-0.799-0.387
	l-0.474,0.604c0.392,0.305,0.752,0.484,1.085,0.533c0.609,0.095,1.196-0.17,1.758-0.801l0.662,0.521l0.252-0.326l-0.66-0.517
	c0.275-0.448,0.43-0.837,0.461-1.164c0.051-0.597-0.225-1.128-0.83-1.603c-0.418-0.326-0.855-0.422-1.309-0.283
	c-0.277,0.091-0.697,0.34-1.26,0.752L22.128,19.146z M22.73,21.122c-0.246,0.049-0.48-0.013-0.705-0.188
	c-0.187-0.147-0.315-0.351-0.387-0.61c-0.072-0.261,0.006-0.548,0.229-0.857l1.604,1.259C23.222,20.938,22.976,21.07,22.73,21.122z
	 M25.15,20.532c0.312-0.093,0.61-0.029,0.895,0.194c0.182,0.139,0.309,0.303,0.385,0.486c0.148,0.354,0.082,0.736-0.203,1.141
	l-1.797-1.406C24.728,20.725,24.968,20.585,25.15,20.532z M17.554,38.268h10.586l-0.014,3.631H17.533L17.554,38.268z M12,25.574
	l10.618,8.309l6.837-8.74l-0.221-0.756c-0.188-0.639-0.098-1.31,0.244-1.842c0.346-0.529,0.916-0.889,1.572-0.98l0.441-0.062
	c0.266-0.039,0.533-0.023,0.797,0.018l3.998-5.111L25.67,8.102L12,25.574z M28.07,24.062c-1.697,2.166-4.83,2.547-6.996,0.854
	c-2.168-1.695-2.552-4.828-0.854-6.994c1.696-2.169,4.828-2.55,6.993-0.855C29.381,18.762,29.766,21.896,28.07,24.062z
	 M29.459,36.93c-0.949,0.34-2.484,0.605-3.496,0.605h-6.25c-1.299,0-2.355-1.057-2.355-2.355v-4.521
	c0.447,0.355,0.896,0.713,1.347,1.066v3.455c0,0.557,0.45,1.01,1.01,1.01h6.251c0.85,0,2.242-0.241,3.041-0.528l6.982-2.497
	c0.254-0.092,0.453-0.275,0.57-0.52c0.111-0.244,0.125-0.518,0.033-0.769l-2.695-7.415c-0.209-0.568-0.916-0.993-1.518-0.908
	l-0.42,0.061c-0.25,0.035-0.449,0.156-0.568,0.341s-0.146,0.418-0.074,0.657l1.207,4.125l0.758,2.479h-2.561h-1.123l0.676-1.349
	h0.447c0.146,0,0.346-0.031,0.461-0.186c0.098-0.136,0.115-0.336,0.049-0.565l-1.207-4.127c-0.18-0.612-0.096-1.257,0.234-1.769
	c0.33-0.509,0.881-0.854,1.512-0.941l0.424-0.061c1.234-0.177,2.541,0.606,2.967,1.781l2.697,7.415
	c0.217,0.592,0.186,1.229-0.082,1.801c-0.268,0.572-0.742,1.002-1.334,1.216L29.459,36.93z"/>
</svg>
